<?xml version="1.0" encoding="utf-8"?>
<!-- Generator: Adobe Illustrator 26.0.3, SVG Export Plug-In . SVG Version: 6.00 Build 0)  -->
<svg version="1.0" id="katman_1" xmlns="http://www.w3.org/2000/svg" xmlns:xlink="http://www.w3.org/1999/xlink" x="0px" y="0px"
	 viewBox="0 0 600 450" style="enable-background:new 0 0 600 450;" xml:space="preserve">
<style type="text/css">
	.st0{clip-path:url(#SVGID_00000075860146315786908610000007150535409512469392_);}
	.st1{fill:#00252A;}
	.st2{clip-path:url(#SVGID_00000009573276738408593900000007392941736811018409_);}
	.st3{fill:#FFFFFF;}
	.st4{fill-rule:evenodd;clip-rule:evenodd;fill:#FFFFFF;}
</style>
<g>
	<defs>
		<rect id="SVGID_1_" x="148.2" y="73.9" width="303.4" height="303.5"/>
	</defs>
	<clipPath id="SVGID_00000022555862567547010920000014838159005424523930_">
		<use xlink:href="#SVGID_1_"  style="overflow:visible;"/>
	</clipPath>
	<g style="clip-path:url(#SVGID_00000022555862567547010920000014838159005424523930_);">
		<rect x="148.2" y="73.9" class="st1" width="303.4" height="303.5"/>
	</g>
</g>
<g>
	<defs>
		<rect id="SVGID_00000092439341835464297530000005871064034012641190_" x="148.1" y="73.3" width="304.1" height="304.1"/>
	</defs>
	<clipPath id="SVGID_00000111898108170106860780000003118732538702796690_">
		<use xlink:href="#SVGID_00000092439341835464297530000005871064034012641190_"  style="overflow:visible;"/>
	</clipPath>
	<g style="clip-path:url(#SVGID_00000111898108170106860780000003118732538702796690_);">
		<polyline class="st3" points="184.9,116.3 201.3,116.3 201.3,121.8 191.3,121.8 191.3,126.6 199.2,126.6 199.2,132.1 191.3,132.1 
			191.3,137 201.8,137 201.8,142.5 184.9,142.5 184.9,116.3 		"/>
		<path class="st3" d="M206.4,123.7h6.1v3.2c0,0.4,0,0.8-0.1,1.2h0.1c0.8-2.7,3.2-4.6,6-4.7c0.2,0,0.5,0,0.7,0.1v6.2
			c-0.4-0.1-0.9-0.1-1.3-0.1c-2.2-0.2-4.2,1.2-4.9,3.3c-0.2,0.8-0.4,1.7-0.3,2.6v7.1h-6.3V123.7"/>
		<path class="st3" d="M232.4,130.8h0.3v-0.3c0-1.6-1.2-2.1-2.8-2.1c-1.8,0.2-3.6,0.8-5.1,1.8l-2.2-4.5c2.3-1.6,5.1-2.4,7.9-2.5
			c5.3,0,8.5,2.9,8.5,7.7v11.6h-5.8v-1.1c0-0.4,0-0.8,0.1-1.2h-0.1c-1.1,1.8-3.2,2.9-5.4,2.7c-3.3,0.2-6.2-2.3-6.4-5.6
			c0-0.1,0-0.3,0-0.4C221.4,131.4,229.5,130.8,232.4,130.8 M229.6,138.1c1.7-0.2,3-1.6,3.1-3.3v-0.4h-0.6c-2,0-4.3,0.6-4.3,2.2
			C227.8,137.4,228.4,138.1,229.6,138.1L229.6,138.1z"/>
		<path class="st3" d="M245.4,135.9c1.3,1.2,3,1.8,4.8,1.9c1,0,1.9-0.3,1.9-0.9c0-1.6-8.8-1.8-8.8-8c0-3.6,3.4-5.7,7.8-5.7
			c2.4-0.1,4.8,0.7,6.6,2.2l-2.2,4.5c-1.3-1-2.9-1.5-4.5-1.5c-1,0-1.9,0.3-1.9,0.9c0,1.4,8.8,1.6,8.8,7.7c0,3.2-2.9,6-7.7,6
			c-2.8,0-5.5-1-7.5-2.8L245.4,135.9"/>
		<path class="st3" d="M262.1,123.7h6.1v1.6c0,0.4,0,0.8-0.1,1.2h0.1c1.2-2,3.3-3.2,5.6-3.3c2.2-0.1,4.3,1.1,5.3,3.2h0.1
			c1.4-2,3.6-3.2,6-3.2c3.4,0,6.1,1.9,6.1,7.1v12.2H285v-11.2c0-1.4-0.3-2.4-1.5-2.4c-2,0-3.1,1.5-3.5,3.6c-0.1,0.7-0.2,1.5-0.1,2.2
			v7.8h-6.3v-11.2c0-1.4-0.3-2.4-1.5-2.4c-2,0-3,1.4-3.4,3.4c-0.1,0.8-0.2,1.6-0.2,2.3v7.8h-6.3V123.7"/>
		<path class="st3" d="M296.2,123.7h6.3v11.1c0,1.8,0.7,2.5,2,2.5c2.7,0,4-2.4,4-5.2v-8.4h6.3v18.9h-6.1v-1.6c0-0.4,0-0.8,0.1-1.2
			h-0.1c-1.2,2.1-3.5,3.3-5.9,3.3c-3.7,0-6.7-1.8-6.7-7.1L296.2,123.7"/>
		<path class="st3" d="M321.6,135.9c1.3,1.2,3,1.8,4.8,1.9c1,0,1.9-0.3,1.9-0.9c0-1.6-8.8-1.8-8.8-8c0-3.6,3.4-5.7,7.8-5.7
			c2.4-0.1,4.8,0.7,6.6,2.2l-2.2,4.5c-1.3-1-2.9-1.5-4.5-1.5c-1,0-1.9,0.3-1.9,0.9c0,1.4,8.8,1.6,8.8,7.7c0,3.2-2.9,6-7.7,6
			c-2.8,0-5.5-1-7.5-2.8L321.6,135.9"/>
		<path class="st3" d="M184.5,155.9h6.4v16.6c-0.1,2.2,1.6,4.1,3.8,4.2c0.3,0,0.5,0,0.8,0c2.2,0.3,4.2-1.3,4.5-3.5
			c0-0.2,0-0.5,0-0.8v-16.6h6.4v16.6c0,5.9-4.3,10.1-10.9,10.1c-6.7,0-11-4.2-11-10.1L184.5,155.9"/>
		<path class="st3" d="M212.1,163.2h6.1v1.6c0,0.4,0,0.8-0.1,1.2h0.1c1.2-2.1,3.6-3.4,6-3.3c3.8,0,6.8,1.8,6.8,7.1v12.2h-6.3V171
			c0-1.8-0.7-2.5-2.1-2.5c-1.7-0.1-3.3,1-3.7,2.7c-0.3,0.8-0.4,1.6-0.4,2.5v8.4h-6.3V163.2"/>
		<path class="st3" d="M236.1,163.2h6.3v18.9h-6.3V163.2z M236.2,155.9h6.2v4.9h-6.2V155.9z"/>
		<path class="st3" d="M245.4,163.2h6.7l2.9,10c0.3,1.1,0.5,2.2,0.7,3.3h0.1c0,0,0.3-2,0.7-3.3l2.9-10h6.7l-6.4,18.9H252
			L245.4,163.2"/>
		<path class="st3" d="M277.6,162.8c4.6-0.2,8.5,3.4,8.7,8c0,0.4,0,0.8,0,1.1c0,0.6-0.1,2-0.1,2h-11.9c0.4,2.1,2.3,3.5,4.4,3.4
			c1.9-0.1,3.7-0.8,5.2-1.9l2.4,4.4c-2.3,1.8-5.1,2.8-8.1,2.7c-5.4,0.3-10-3.8-10.3-9.2c0-0.2,0-0.5,0-0.7c-0.3-5.2,3.7-9.6,8.9-9.9
			C277,162.7,277.4,162.7,277.6,162.8 M280,170.2c0.1-1.4-1-2.6-2.4-2.7c0,0,0,0-0.1,0c-1.5,0-2.9,1.2-3,2.7H280z"/>
		<path class="st3" d="M290.5,163.2h6.1v3.2c0,0.4,0,0.8-0.1,1.2h0.1c0.8-2.7,3.2-4.6,6-4.7c0.2,0,0.5,0,0.7,0.1v6.2
			c-0.4-0.1-0.9-0.1-1.3-0.1c-2.2-0.2-4.2,1.2-4.9,3.3c-0.2,0.8-0.4,1.7-0.3,2.6v7.1h-6.3V163.2"/>
		<path class="st3" d="M308.3,175.5c1.3,1.2,3,1.8,4.8,1.9c1,0,1.9-0.3,1.9-0.9c0-1.6-8.8-1.8-8.8-8c0-3.6,3.4-5.7,7.8-5.7
			c2.4-0.1,4.8,0.7,6.6,2.2l-2.2,4.5c-1.3-1-2.9-1.5-4.5-1.5c-1,0-1.9,0.3-1.9,0.9c0,1.4,8.8,1.6,8.8,7.7c0,3.2-2.9,6-7.7,6
			c-2.8,0-5.5-1-7.5-2.8L308.3,175.5"/>
		<path class="st3" d="M325,163.2h6.3v18.9H325V163.2z M325.1,155.9h6.2v4.9h-6.2V155.9z"/>
		<path class="st3" d="M337.7,168.5h-2.4v-4.9h2.6v-5.4h6.2v5.4h4v4.9h-4v5.8c0,2.1,2.2,2.4,3.4,2.4c0.3,0,0.6,0,0.8,0v5.5
			c-0.6,0.1-1.1,0.1-1.7,0.1c-3,0-8.8-0.8-8.8-7.1L337.7,168.5"/>
		<path class="st3" d="M352.4,183.8c0.6,0.4,1.2,0.6,1.9,0.7c1.3,0.1,2.6-0.7,3-1.9l0.4-0.9l-8-18.5h7.2l2.8,8.7
			c0.3,1,0.7,2.9,0.7,2.9h0.1c0,0,0.4-1.8,0.6-2.8l2.4-8.8h6.9l-7.7,20.9c-1.1,3.4-4.3,5.7-7.9,5.7c-1.6,0-3.1-0.5-4.4-1.3
			L352.4,183.8"/>
		<path class="st3" d="M184.9,195.4h9.1c1.7-0.1,3.4,0.1,5.1,0.6c3.1,1.2,5.1,4.3,4.8,7.6c0.1,2.9-1.4,5.7-3.9,7.1v0.1
			c0.4,0.5,0.7,1,1,1.6l5.1,9.2h-7.1l-4.7-8.8h-3v8.8h-6.4V195.4 M194,207.3c1.6,0.2,3.1-1,3.3-2.6c0-0.2,0-0.4,0-0.6
			c0-2-0.7-3.1-4-3.1h-2.2v6.4H194z"/>
		<path class="st3" d="M219,202.3c5.5-0.4,10.3,3.8,10.7,9.3c0,0.2,0,0.4,0,0.6c0,5.9-4.8,9.8-10.7,9.8s-10.7-3.9-10.7-9.8
			c0-5.5,4.6-10,10.1-9.9C218.7,202.3,218.8,202.3,219,202.3 M219.1,216.8c2.4,0,4.3-1.9,4.3-4.2c0-0.1,0-0.2,0-0.3
			c0.2-2.4-1.5-4.5-3.9-4.7s-4.5,1.5-4.7,3.9c0,0.3,0,0.5,0,0.8c-0.2,2.4,1.6,4.4,4,4.5C218.9,216.8,219,216.8,219.1,216.8z"/>
		<path class="st3" d="M234.7,208h-2.4v-4.9h2.6v-5.4h6.2v5.4h4v4.9h-4v5.8c0,2.1,2.2,2.4,3.4,2.4c0.3,0,0.6,0,0.8,0v5.5
			c-0.6,0.1-1.1,0.1-1.7,0.1c-3,0-8.8-0.8-8.8-7.1L234.7,208"/>
		<path class="st3" d="M250.7,208h-2.4v-4.9h2.6v-5.4h6.2v5.4h4v4.9h-4v5.8c0,2.1,2.2,2.4,3.4,2.4c0.3,0,0.6,0,0.8,0v5.5
			c-0.6,0.1-1.1,0.1-1.7,0.1c-3,0-8.8-0.8-8.8-7.1L250.7,208"/>
		<path class="st3" d="M274.1,202.3c4.6-0.2,8.5,3.4,8.7,8c0,0.4,0,0.8,0,1.1c0,0.6-0.1,2-0.1,2h-11.9c0.4,2.1,2.3,3.5,4.4,3.4
			c1.9-0.1,3.7-0.8,5.2-1.9l2.3,4.4c-2.3,1.8-5.1,2.8-8.1,2.7c-5.4,0.3-10-3.8-10.3-9.2c0-0.2,0-0.5,0-0.7c-0.3-5.2,3.7-9.6,8.9-9.9
			C273.5,202.3,273.8,202.3,274.1,202.3 M276.5,209.8c0.1-1.4-1-2.6-2.4-2.7c0,0,0,0-0.1,0c-1.5,0-2.8,1.2-3,2.7H276.5z"/>
		<path class="st3" d="M287,202.7h6.1v3.2c0,0.4,0,0.8-0.1,1.2h0.1c0.8-2.7,3.2-4.6,6-4.7c0.2,0,0.5,0,0.7,0.1v6.2
			c-0.4-0.1-0.9-0.1-1.3-0.1c-2.2-0.1-4.2,1.2-4.8,3.3c-0.2,0.8-0.4,1.7-0.3,2.6v7.1H287V202.7"/>
		<path class="st3" d="M310.8,202.3c3.8,0,4.9,1.5,4.9,1.5h0.1c0,0,0-0.4,0-0.8v-7.5h6.3v26.2h-5.9v-1.2c0-0.6,0-1.1,0-1.1h-0.1
			c-1.2,1.8-3.3,2.8-5.5,2.7c-5.1,0-8.5-4-8.5-9.9C302.2,206.2,305.8,202.3,310.8,202.3 M312.3,216.8c1.9,0,3.7-1.4,3.7-4.6
			c0-2.3-1.2-4.5-3.7-4.5c-2,0-3.7,1.6-3.7,4.5C308.6,215,310.1,216.8,312.3,216.8z"/>
		<path class="st3" d="M337.1,209.9h0.3v-0.3c0-1.6-1.2-2.1-2.8-2.1c-1.8,0.2-3.6,0.8-5.1,1.8l-2.2-4.5c2.3-1.6,5.1-2.4,7.9-2.5
			c5.3,0,8.5,2.9,8.5,7.7v11.6h-5.8v-1.1c0-0.4,0-0.8,0.1-1.2h-0.1c-1.1,1.8-3.2,2.9-5.4,2.7c-3.3,0.2-6.2-2.3-6.4-5.6
			c0-0.1,0-0.3,0-0.4C326.1,210.5,334.2,209.9,337.1,209.9 M334.3,217.2c1.7-0.2,3-1.6,3.1-3.3v-0.4h-0.6c-2,0-4.3,0.6-4.3,2.2
			C332.5,216.5,333.1,217.2,334.3,217.2L334.3,217.2z"/>
		<path class="st3" d="M348.8,202.7h6.1v1.6c0,0.4,0,0.8-0.1,1.2h0.1c1.2-2,3.3-3.2,5.6-3.3c2.2-0.1,4.3,1.1,5.3,3.2h0.1
			c1.4-2,3.6-3.2,6-3.2c3.4,0,6.1,1.9,6.1,7.1v12.2h-6.3v-11.2c0-1.4-0.3-2.4-1.5-2.4c-2,0-3.1,1.5-3.5,3.6
			c-0.1,0.7-0.2,1.5-0.1,2.2v7.8h-6.3v-11.2c0-1.4-0.3-2.4-1.5-2.4c-2,0-3,1.4-3.4,3.4c-0.1,0.8-0.2,1.6-0.2,2.3v7.8h-6.3V202.7"/>
		<path class="st4" d="M343.4,289.2c-4.1,11.3-15.5,18.7-18,18.7c-4.5,0-0.4-8.8-6.6-8.8c-4.2,0-11.2,4.5-11.2,9.2
			c0.1,2.5,2.1,4.4,4.6,4.4c0.1,0,0.3,0,0.4,0c4.2,0,3.4-5.4,5.9-5.4c2.2,0,1.5,4.1,6.9,4.1c2.9,0,4.8-2.9,6.3-2.9
			c0.4,0,1,0.2,1,1.5c0,2.1-2.5,8.9-2.5,10.6c0.1,1.1,1,1.9,2.2,2c0.8,0.1,1.6-0.4,1.9-1.2c0.6-2.3,1.2-4.3,1.8-6.3
			c9.1-29.5,17.3-20.4,17.3-26.8c0-2.3-1.9-3.1-4.2-3.1C346.6,285.2,344.3,286.8,343.4,289.2 M312.2,307.7c-0.6,0-0.7-0.2-0.7-0.7
			c0-1.7,2.8-3.9,4.2-3.9c0.5,0,0.9,0.2,0.9,0.6C316.5,304.4,313.5,307.7,312.2,307.7"/>
		<path class="st4" d="M288,298.7c-0.8,0.6,0.7,3.4,1.8,2.9c2.1-1.2,4.3-2.1,6.7-2.6c1,0,1.4,0.4,1.4,1c0,2.1-11.2,7.8-11.2,12.9
			c0,1.2,1.1,3.1,4.8,3.1c5.7,0,12.4-2.6,12.4-4.9c-0.1-0.5-0.5-0.8-1-0.8c-0.9,0-6.6,2.3-9.6,2.3c-1,0-1.8-0.4-1.8-1.1
			c0-3.1,10.7-8,10.7-11.7c-0.1-2.4-2.2-4.4-4.6-4.3c-0.1,0-0.2,0-0.2,0C294,295.9,290.7,296.9,288,298.7"/>
		<path class="st4" d="M399.3,302.7c-0.9,3.4-7.2,4.3-10.7,4.3s-3.4-1-4.2-4.5c-0.7-3.3-2.1-4.2-3.9-4.2c-1.4,0-2.7,1.3-4.2,2.7
			c-2.6,2.4-5.2,5.8-6.6,5.8c-1.2,0-2.1-1.4-2.1-2.8c0-1.3,1-1.8,1-3.2c0-1-0.5-2.9-2-2.9c-2.2,0-5.7,3.8-6.3,4.4
			c-1.8,1.8-4.3,5.4-6.9,5.4c-3.9,0-0.3-6-5-6c-1.8,0-3.3,1.5-3.4,3.3c0,1.8,1.2,2.8,2.5,4.2c1.5,1.6,2.6,2.9,4.6,2.9
			c6,0,7.3-6.6,10.4-6.6c1,0,1.5,0.9,1.6,1.8c0.3,2.2,2.7,3.3,5.5,3.3c5.3,0,5.4-4.7,8.6-4.7c4.4,0,3.6,5.2,8.5,5.2
			c1.8-0.1,3.5-0.4,5.3-0.7c2.8-0.1,5.6-0.7,8.3-1.7c3.7-2.2,1.8-8.8,5.6-8.8c1.3,0,2.3,0.9,2.3,3.1c0,2.7-0.9,9-14.3,15.8
			c-1.4,0.7-2.3,1.6-2.3,2.4c0,0.8,0.8,1.3,1.6,1.3c3,0,19.4-8.8,19.4-18.9c0-5.8-2.5-7.6-6.2-7.6
			C400.5,296.2,400.1,299.7,399.3,302.7"/>
		<path class="st4" d="M284,264.1c-10,0-28.6,6.6-48.2,34.8c-13.4,3.8-59.5,18-59.5,28.6c0,2.2,3.3,5.2,8,5.2c2.2,0,4-0.8,4-2.1
			c0-2.4-5.9-2.3-5.9-4.1c0-4.7,26.9-15,50.1-21.9c-8.9,17-4,38.2,17.1,38.2c10,0,20-6.1,26.1-9.8c0.5-0.3,0.7-0.9,0.4-1.4
			c-0.3-0.5-0.9-0.7-1.4-0.4c0,0-0.1,0-0.1,0.1c-6.3,3.3-14.4,7.4-23,7.4c-22.6,0-20.1-22.5-12.4-35.9c8.9-2.6,18.1-4.1,27.4-4.3
			c7.9,0,9.9,3,11.5,3.5c1.5,0.5,2.6-0.7,1.6-2.1c-1.6-2.1-4.5-5.8-14.9-5.8c-7.5,0.3-14.9,1.3-22.2,3.1
			c9.6-12.9,25.3-28.9,42.2-28.9c4.8,0,11.3,1.7,11.3-0.6C296.1,264.5,286.6,264.1,284,264.1"/>
	</g>
</g>
</svg>
